<svg width="45" height="45" viewBox="0 0 58 58" fill="none" xmlns="http://www.w3.org/2000/svg">
<path d="M53.6356 28.8562C53.6356 42.8981 42.2748 54.2814 28.2606 54.2814C14.2464 54.2814 2.88562 42.8981 2.88562 28.8562C2.88562 14.8142 14.2464 3.43093 28.2606 3.43093C42.2748 3.43093 53.6356 14.8142 53.6356 28.8562Z" fill="#201919"/>
<path d="M30.6104 58C34.8786 57.7621 39.0415 56.5818 42.8011 54.5434C46.5607 52.505 49.8241 49.659 52.3577 46.2092C54.8912 42.7593 56.6323 38.7909 57.4562 34.588C58.2801 30.3851 58.1666 26.0517 57.1236 21.8979L56.3163 22.1014C57.3293 26.136 57.4396 30.345 56.6393 34.4272C55.8391 38.5095 54.148 42.364 51.6872 45.7148C49.2263 49.0656 46.0566 51.8299 42.4049 53.8098C38.7532 55.7896 34.7098 56.9361 30.5642 57.1671L30.6104 58Z" fill="#4A4458"/>
<path d="M27.4127 0.391302C27.3999 0.161313 27.2035 -0.0150717 26.9741 0.00101928C22.8515 0.290287 18.8365 1.45928 15.1989 3.43147C11.4393 5.46985 8.17586 8.31583 5.6423 11.7657C3.10874 15.2155 1.36769 19.184 0.543766 23.3869C-0.253403 27.4533 -0.172959 31.6419 0.777733 35.6718C0.830617 35.8959 1.05712 36.0314 1.28007 35.9752C1.50301 35.919 1.63795 35.6924 1.58516 35.4682C0.664351 31.5576 0.587142 27.4934 1.36066 23.5476C2.16093 19.4654 3.85201 15.6109 6.31283 12.2601C8.77366 8.90925 11.9434 6.14497 15.5951 4.16511C19.1247 2.25143 23.0203 1.11635 27.0204 0.833972C27.2497 0.817784 27.4254 0.621291 27.4127 0.391302Z" fill="#4A4458"/>
<path d="M26.0311 30.4409C26.0311 30.8136 25.8316 31 25.4326 31C25.2388 31 25.085 30.9527 24.971 30.8581C24.857 30.7636 24.8 30.6245 24.8 30.4409V27.1363C24.8 26.3686 24.9596 25.8206 25.2787 25.4924C25.5979 25.1641 26.0966 25 26.7749 25C27.4702 25 27.9831 25.1669 28.3137 25.5007C28.6443 25.8345 28.8096 26.3797 28.8096 27.1363V30.4409C28.8096 30.8136 28.6101 31 28.2111 31C28.0173 31 27.8635 30.9527 27.7495 30.8581C27.6355 30.7636 27.5785 30.6245 27.5785 30.4409V28.4298C27.4702 28.5243 27.3505 28.605 27.2194 28.6718C27.094 28.7385 26.9458 28.7719 26.7749 28.7719C26.5241 28.7719 26.336 28.8164 26.2106 28.9054C26.0909 28.9944 26.0311 29.153 26.0311 29.3811V30.4409ZM25.9798 27.9958C26.071 27.9068 26.1793 27.8373 26.3046 27.7872C26.4357 27.7371 26.5925 27.7121 26.7749 27.7121C26.9914 27.7121 27.1567 27.6954 27.2707 27.662C27.3904 27.6287 27.473 27.5647 27.5186 27.4701C27.5642 27.3755 27.587 27.2364 27.587 27.0529C27.587 26.6412 27.5272 26.3602 27.4075 26.21C27.2878 26.0542 27.0741 25.9764 26.7663 25.9764C26.4813 25.9764 26.2847 26.057 26.1764 26.2184C26.0738 26.3741 26.0225 26.6634 26.0225 27.0862C26.0225 27.3032 26.0197 27.4868 26.014 27.637C26.0083 27.7872 25.9969 27.9068 25.9798 27.9958Z" fill="#D7D1D1"/>
<path d="M30.6015 31C30.1798 31 29.9689 30.8136 29.9689 30.4409V25.5591C29.9689 25.3644 30.0173 25.2225 30.1142 25.1335C30.2111 25.0445 30.365 25 30.5759 25C30.992 25 31.2 25.1864 31.2 25.5591V30.4409C31.2 30.63 31.1515 30.7719 31.0547 30.8665C30.9635 30.9555 30.8124 31 30.6015 31Z" fill="#D7D1D1"/>
<path d="M25.6444 32.9623C25.5045 32.8313 25.3264 32.7421 25.1325 32.7059C24.9385 32.6698 24.7375 32.6883 24.5549 32.7593C24.3722 32.8302 24.2161 32.9503 24.1062 33.1044C23.9963 33.2585 23.9376 33.4396 23.9375 33.625V35.5H22.6875C22.2234 35.5 21.7783 35.3271 21.4501 35.0195C21.1219 34.7118 20.9375 34.2945 20.9375 33.8594V21.9062C21.7079 21.5065 22.316 20.8796 22.6676 20.1227C23.0191 19.3659 23.0945 18.5215 22.8821 17.7204C22.6696 16.9194 22.1811 16.2064 21.4924 15.6921C20.8036 15.1778 19.9531 14.891 19.0728 14.876C18.1924 14.861 17.3314 15.1188 16.6232 15.6094C15.9151 16.0999 15.3993 16.7958 15.156 17.5892C14.9127 18.3825 14.9554 19.2289 15.2775 19.9972C15.5996 20.7654 16.1831 21.4126 16.9375 21.8383V33.8594C16.9392 35.2886 17.5455 36.6588 18.6235 37.6694C19.7014 38.68 21.163 39.2484 22.6875 39.25H23.9375V41.125C23.9376 41.3104 23.9963 41.4915 24.1062 41.6456C24.2161 41.7997 24.3722 41.9198 24.5549 41.9907C24.7375 42.0616 24.9385 42.0802 25.1325 42.0441C25.3264 42.0079 25.5045 41.9187 25.6444 41.7877L29.6444 38.0377C29.8318 37.8619 29.937 37.6235 29.937 37.375C29.937 37.1265 29.8318 36.8881 29.6444 36.7123L25.6444 32.9623ZM19 16.75C19.3956 16.75 19.7822 16.86 20.1111 17.066C20.44 17.272 20.6964 17.5649 20.8478 17.9075C20.9991 18.2501 21.0387 18.6271 20.9616 18.9908C20.8844 19.3545 20.6939 19.6886 20.4142 19.9508C20.1345 20.213 19.7781 20.3916 19.3902 20.464C19.0022 20.5363 18.6001 20.4992 18.2346 20.3573C17.8692 20.2154 17.5568 19.975 17.3371 19.6667C17.1173 19.3584 17 18.9958 17 18.625C17 18.1277 17.2107 17.6508 17.5858 17.2992C17.9609 16.9475 18.4696 16.75 19 16.75Z" fill="#14AE5C"/>
<path d="M39 34.1295V22.1406C38.9983 20.7114 38.392 19.3412 37.314 18.3306C36.2361 17.32 34.7745 16.7516 33.25 16.75H32V14.875C31.9999 14.6896 31.9412 14.5085 31.8313 14.3544C31.7214 14.2003 31.5653 14.0802 31.3826 14.0093C31.2 13.9384 30.999 13.9198 30.805 13.9559C30.6111 13.9921 30.433 14.0813 30.2931 14.2123L26.2931 17.9623C26.1057 18.1381 26.0005 18.3765 26.0005 18.625C26.0005 18.8735 26.1057 19.1119 26.2931 19.2877L30.2931 23.0377C30.433 23.1687 30.6111 23.2579 30.805 23.2941C30.999 23.3302 31.2 23.3116 31.3826 23.2407C31.5653 23.1698 31.7214 23.0497 31.8313 22.8956C31.9412 22.7415 31.9999 22.5604 32 22.375V20.5H33.25C33.7141 20.5 34.1592 20.6729 34.4874 20.9805C34.8156 21.2882 35 21.7055 35 22.1406V34.1295C34.2374 34.5422 33.6414 35.1794 33.3045 35.942C32.9675 36.7047 32.9084 37.5503 33.1363 38.3477C33.3642 39.145 33.8664 39.8496 34.565 40.3522C35.2635 40.8547 36.1195 41.1271 37 41.1271C37.8805 41.1271 38.7365 40.8547 39.435 40.3522C40.1336 39.8496 40.6358 39.145 40.8637 38.3477C41.0916 37.5503 41.0325 36.7047 40.6955 35.942C40.3586 35.1794 39.7626 34.5422 39 34.1295ZM37 39.25C36.6044 39.25 36.2178 39.14 35.8889 38.934C35.56 38.728 35.3036 38.4351 35.1522 38.0925C35.0009 37.7499 34.9613 37.3729 35.0384 37.0092C35.1156 36.6455 35.3061 36.3114 35.5858 36.0492C35.8655 35.787 36.2219 35.6084 36.6098 35.536C36.9978 35.4637 37.3999 35.5008 37.7654 35.6427C38.1308 35.7846 38.4432 36.025 38.6629 36.3333C38.8827 36.6416 39 37.0042 39 37.375C39 37.8723 38.7893 38.3492 38.4142 38.7008C38.0391 39.0525 37.5304 39.25 37 39.25Z" fill="#14AE5C"/>
</svg>
